<?xml version="1.0" standalone="no"?>
<!DOCTYPE svg PUBLIC "-//W3C//DTD SVG 20010904//EN"
 "http://www.w3.org/TR/2001/REC-SVG-20010904/DTD/svg10.dtd">
<svg version="1.0" xmlns="http://www.w3.org/2000/svg"
 width="24px" height="24px" viewBox="0 0 2250 2250"
 preserveAspectRatio="xMidYMid meet">

<g transform="translate(0.000000,2250.000000) scale(0.1,-0.1)"
fill="#515151" stroke="none">
<path d="M13601 21923 c-30 -31 -46 -85 -81 -273 -97 -521 -457 -1665 -736
-2333 -80 -192 -210 -448 -250 -496 -45 -52 -71 -53 -127 -3 -127 115 -471
266 -737 324 -93 20 -134 22 -350 23 -220 0 -257 -2 -360 -24 -330 -68 -566
-181 -890 -428 -45 -35 -88 -63 -95 -63 -8 0 -18 15 -23 33 -103 353 -156 503
-262 737 -168 370 -343 674 -507 880 -84 106 -315 339 -408 412 -231 181 -466
293 -596 286 -53 -3 -54 -4 -57 -35 -4 -43 32 -129 158 -378 221 -435 460
-1060 615 -1603 84 -297 89 -347 50 -572 -14 -80 -28 -190 -31 -245 -13 -230
56 -465 253 -859 35 -70 62 -134 59 -141 -2 -7 -23 -16 -46 -20 -22 -4 -60
-21 -83 -39 -39 -30 -87 -89 -87 -107 0 -25 66 -74 187 -138 76 -41 157 -89
180 -107 77 -62 112 -176 113 -363 0 -158 87 -475 191 -704 29 -62 58 -129 65
-151 23 -64 16 -178 -26 -433 -84 -520 -81 -555 64 -698 194 -192 565 -334
941 -360 106 -8 289 13 446 51 150 36 170 39 180 23 36 -58 -28 -262 -171
-544 -123 -243 -590 -1051 -710 -1230 -26 -38 -74 -115 -107 -170 -57 -97
-429 -686 -545 -863 -31 -48 -96 -150 -144 -227 -48 -77 -198 -309 -332 -515
-661 -1012 -871 -1348 -1092 -1746 -123 -221 -530 -1027 -605 -1199 -311 -713
-529 -1531 -614 -2300 -20 -175 -33 -391 -47 -742 l-7 -171 -106 -31 c-185
-54 -288 -64 -651 -65 -343 -1 -487 8 -800 50 -595 79 -1124 207 -1540 371
-436 172 -787 398 -1085 697 -695 698 -956 1548 -829 2701 51 462 201 1033
397 1502 42 100 81 201 87 224 24 89 305 671 515 1069 63 118 73 163 38 168
-77 11 -282 -183 -442 -417 -189 -279 -444 -742 -596 -1086 -323 -730 -505
-1508 -522 -2230 -12 -513 47 -886 216 -1375 60 -173 103 -271 237 -540 168
-335 291 -516 565 -831 231 -267 569 -559 894 -774 272 -180 803 -433 1239
-590 138 -49 831 -235 1131 -303 461 -104 839 -148 1367 -159 l308 -6 101
-186 c124 -227 203 -348 330 -506 292 -363 696 -725 1059 -950 111 -69 341
-180 525 -255 811 -329 1832 -516 2720 -497 562 12 1026 98 1925 357 1447 417
1929 539 2755 695 1629 309 2263 497 2821 841 761 467 1212 1140 1339 1994 34
232 44 551 24 756 -24 241 -148 831 -220 1049 -122 365 -313 661 -620 961
-553 538 -1175 788 -2104 845 -582 35 -1517 -96 -2151 -302 -71 -23 -299 -108
-507 -190 -208 -82 -379 -149 -382 -149 -2 0 -75 -30 -162 -66 -506 -211
-1208 -558 -1858 -919 -848 -471 -1526 -795 -1970 -943 -244 -81 -269 -80
-311 14 -58 131 -167 596 -193 824 -67 578 -20 1596 100 2179 117 571 392
1506 657 2236 99 273 155 414 288 723 143 331 255 615 440 1115 282 762 686
1814 961 2507 185 467 234 600 288 785 53 184 81 327 96 488 14 156 39 254 79
308 31 43 60 126 80 230 19 98 53 138 199 234 260 172 436 376 581 677 109
227 145 373 160 654 11 214 26 292 100 524 90 284 98 335 106 670 9 357 -11
550 -63 606 -20 22 -30 25 -60 21 -20 -4 -53 -18 -74 -32 -46 -30 -66 -32 -73
-7 -4 10 -5 162 -4 338 3 337 -3 413 -44 523 -37 98 -89 140 -198 156 -25 4
-53 11 -62 16 -31 16 -55 80 -87 229 -39 178 -63 259 -105 359 -88 209 -207
302 -285 224z"/>
</g>
</svg>
